<svg width="151" height="27" viewBox="0 0 151 27" fill="none" xmlns="http://www.w3.org/2000/svg">
<path d="M18.0574 12.932C19.5934 13.292 20.7814 14.036 21.6214 15.164C22.4854 16.268 22.9174 17.552 22.9174 19.016C22.9174 21.248 22.1734 22.976 20.6854 24.2C19.2214 25.4 17.1094 26 14.3494 26H0.993359V0.512H13.9894C16.5814 0.512 18.6214 1.076 20.1094 2.204C21.5974 3.332 22.3414 4.976 22.3414 7.136C22.3414 8.624 21.9454 9.884 21.1534 10.916C20.3854 11.924 19.3534 12.596 18.0574 12.932ZM8.98536 10.448H12.0814C12.8014 10.448 13.3294 10.304 13.6654 10.016C14.0254 9.728 14.2054 9.284 14.2054 8.684C14.2054 8.06 14.0254 7.604 13.6654 7.316C13.3294 7.004 12.8014 6.848 12.0814 6.848H8.98536V10.448ZM12.6214 19.592C13.3414 19.592 13.8694 19.46 14.2054 19.196C14.5654 18.908 14.7454 18.452 14.7454 17.828C14.7454 16.604 14.0374 15.992 12.6214 15.992H8.98536V19.592H12.6214Z" fill="#ED3126"/>
<path d="M46.4467 9.26C46.4467 10.868 46.0747 12.332 45.3307 13.652C44.5867 14.948 43.4827 15.98 42.0187 16.748C40.5787 17.516 38.8267 17.9 36.7627 17.9H33.5947V26H25.6027V0.512H36.7627C39.8827 0.512 42.2707 1.304 43.9267 2.888C45.6067 4.472 46.4467 6.596 46.4467 9.26ZM35.8627 11.6C37.5187 11.6 38.3467 10.82 38.3467 9.26C38.3467 7.7 37.5187 6.92 35.8627 6.92H33.5947V11.6H35.8627ZM65.3256 22.148H56.8296L55.5696 26H47.1816L56.5056 0.512H65.7216L75.0096 26H66.5856L65.3256 22.148ZM63.3816 16.136L61.0776 9.044L58.7736 16.136H63.3816ZM76.1054 13.22C76.1054 10.7 76.6094 8.456 77.6174 6.488C78.6494 4.52 80.1134 2.996 82.0094 1.916C83.9054 0.811999 86.1374 0.259999 88.7054 0.259999C90.9134 0.259999 92.8814 0.679999 94.6094 1.52C96.3614 2.336 97.7774 3.5 98.8574 5.012C99.9614 6.524 100.693 8.288 101.053 10.304H92.6294C92.2454 9.464 91.6934 8.816 90.9734 8.36C90.2774 7.88 89.4734 7.64 88.5614 7.64C87.2174 7.64 86.1494 8.144 85.3574 9.152C84.5894 10.16 84.2054 11.516 84.2054 13.22C84.2054 14.924 84.5894 16.28 85.3574 17.288C86.1494 18.296 87.2174 18.8 88.5614 18.8C89.4734 18.8 90.2774 18.572 90.9734 18.116C91.6934 17.636 92.2454 16.976 92.6294 16.136H101.053C100.693 18.152 99.9614 19.916 98.8574 21.428C97.7774 22.94 96.3614 24.116 94.6094 24.956C92.8814 25.772 90.9134 26.18 88.7054 26.18C86.1374 26.18 83.9054 25.64 82.0094 24.56C80.1134 23.456 78.6494 21.92 77.6174 19.952C76.6094 17.984 76.1054 15.74 76.1054 13.22ZM119.339 26L111.923 14.948V26H103.931V0.512H111.923V11.24L119.231 0.512H128.267L119.483 12.716L128.843 26H119.339ZM141.079 26.252C138.031 26.252 135.511 25.544 133.519 24.128C131.551 22.688 130.483 20.588 130.315 17.828H138.811C138.931 19.292 139.579 20.024 140.755 20.024C141.187 20.024 141.547 19.928 141.835 19.736C142.147 19.52 142.303 19.196 142.303 18.764C142.303 18.164 141.979 17.684 141.331 17.324C140.683 16.94 139.675 16.508 138.307 16.028C136.675 15.452 135.319 14.888 134.239 14.336C133.183 13.784 132.271 12.98 131.503 11.924C130.735 10.868 130.363 9.512 130.387 7.856C130.387 6.2 130.807 4.796 131.647 3.644C132.511 2.468 133.675 1.58 135.139 0.979998C136.627 0.379999 138.295 0.079999 140.143 0.079999C143.263 0.079999 145.735 0.799999 147.559 2.24C149.407 3.68 150.379 5.708 150.475 8.324H141.871C141.847 7.604 141.667 7.088 141.331 6.776C140.995 6.464 140.587 6.308 140.107 6.308C139.771 6.308 139.495 6.428 139.279 6.668C139.063 6.884 138.955 7.196 138.955 7.604C138.955 8.18 139.267 8.66 139.891 9.044C140.539 9.404 141.559 9.848 142.951 10.376C144.559 10.976 145.879 11.552 146.911 12.104C147.967 12.656 148.879 13.424 149.647 14.408C150.415 15.392 150.799 16.628 150.799 18.116C150.799 19.676 150.415 21.08 149.647 22.328C148.879 23.552 147.763 24.512 146.299 25.208C144.835 25.904 143.095 26.252 141.079 26.252Z" fill="#527697"/>
</svg>
